<?xml version="1.0" encoding="UTF-8" standalone="no"?>
<!DOCTYPE svg PUBLIC "-//W3C//DTD SVG 1.1//EN" "http://www.w3.org/Graphics/SVG/1.1/DTD/svg11.dtd">
<svg width="100%" height="100%" viewBox="0 0 1200 287" version="1.1" xmlns="http://www.w3.org/2000/svg" xmlns:xlink="http://www.w3.org/1999/xlink" xml:space="preserve" xmlns:serif="http://www.serif.com/" style="fill-rule:evenodd;clip-rule:evenodd;stroke-linejoin:round;stroke-miterlimit:2;">
    <g transform="matrix(1,0,0,1,35,-859.938985)">
        <g transform="matrix(187.5,0,0,187.5,1136.75,1042.625)">
        </g>
        <text x="260px" y="1042.625px" style="font-family:'SurgenaPersonaluseonly-SemBd', 'Surgena Personal use only';font-weight:600;font-size:187.5px;fill:rgb(15,23,42);">unificando</text>
    </g>
    <g transform="matrix(0.095056,0,0,0.094911,26.664618,-60.649681)">
        <g transform="matrix(8.498106,0,0,8.498106,-1545.244686,-19215.088569)">
            <g transform="matrix(1.138251,-1.821616,1.821616,1.138251,-81.415307,2598.530306)">
                <path d="M180.296,130.74L134.777,124.213L135.629,118.274L181.148,124.8L180.296,130.74Z" style="fill:rgb(15,23,42);stroke:rgb(15,23,42);stroke-width:0.58px;"/>
            </g>
            <g transform="matrix(2.147999,0,0,2.147999,-2.228734,2236.250371)">
                <path d="M180.296,130.74L134.777,124.213L135.629,118.274L181.148,124.8L180.296,130.74Z" style="fill:rgb(15,23,42);stroke:rgb(15,23,42);stroke-width:0.58px;"/>
            </g>
            <g transform="matrix(2.147999,0,0,2.147999,-2.228734,2236.250371)">
                <path d="M126.35,120.701C125.212,114.33 129.455,108.242 135.826,107.104C142.198,105.966 148.286,110.208 149.424,116.58C150.562,122.951 146.319,129.039 139.948,130.177C133.576,131.315 127.488,127.073 126.35,120.701Z" style="fill:rgb(15,23,42);stroke:rgb(15,23,42);stroke-width:0.58px;"/>
            </g>
            <g transform="matrix(2.147999,0,0,2.147999,-2.228734,2236.250371)">
                <path d="M148.758,187.6L145.938,194.04C144.381,197.595 140.868,199.892 136.986,199.892C133.356,199.892 130.024,197.879 128.336,194.666L124.623,187.6L148.758,187.6Z" style="fill:rgb(15,23,42);"/>
            </g>
            <g transform="matrix(2.147999,0,0,2.147999,-2.228734,2236.250371)">
                <path d="M156.946,167.413L115.465,167.413L115.465,164.081C115.465,158.58 113.116,153.528 109.02,150.22C97.98,141.303 92.002,127.508 93.029,113.318C94.568,92.034 111.784,74.851 133.073,73.35L133.495,79.335C115.163,80.627 100.339,95.423 99.013,113.751C98.128,125.981 103.279,137.87 112.791,145.552C117.627,149.458 120.654,155.135 121.324,161.413L151.098,161.413C151.806,155.204 154.96,149.421 159.995,145.247L163.825,149.865C159.453,153.49 156.946,158.672 156.946,164.084L156.946,167.413Z" style="fill:rgb(15,23,42);"/>
            </g>
            <g transform="matrix(2.147999,0,0,2.147999,-2.228734,2236.250371)">
                <path d="M119.986,167.333C118.439,167.333 117.181,168.591 117.181,170.137C117.181,171.684 118.439,172.942 119.986,172.942L152.425,172.942C153.972,172.942 155.23,171.684 155.23,170.137C155.23,168.591 153.972,167.333 152.425,167.333L119.986,167.333ZM152.425,178.942L119.986,178.942C115.131,178.942 111.181,174.992 111.181,170.137C111.181,165.282 115.131,161.333 119.986,161.333L152.425,161.333C157.28,161.333 161.23,165.282 161.23,170.137C161.23,174.992 157.28,178.942 152.425,178.942Z" style="fill:rgb(100,116,139);"/>
            </g>
            <g transform="matrix(2.147999,0,0,2.147999,-2.228734,2236.250371)">
                <path d="M119.986,178.942C118.439,178.942 117.181,180.201 117.181,181.747C117.181,183.294 118.439,184.552 119.986,184.552L152.425,184.552C153.972,184.552 155.23,183.294 155.23,181.747C155.23,180.201 153.972,178.942 152.425,178.942L119.986,178.942ZM152.425,190.552L119.986,190.552C115.131,190.552 111.181,186.602 111.181,181.747C111.181,176.892 115.131,172.942 119.986,172.942L152.425,172.942C157.28,172.942 161.23,176.892 161.23,181.747C161.23,186.602 157.28,190.552 152.425,190.552Z" style="fill:rgb(100,116,139);"/>
            </g>
        </g>
        <g transform="matrix(18.253926,0,0,18.253926,-886.484619,-1012.362132)">
            <path d="M126.35,120.701C125.212,114.33 129.455,108.242 135.826,107.104C142.198,105.966 148.286,110.208 149.424,116.58C150.562,122.951 146.319,129.039 139.948,130.177C133.576,131.315 127.488,127.073 126.35,120.701Z" style="fill:none;stroke:rgb(15,23,42);stroke-width:7.21px;"/>
        </g>
        <g transform="matrix(18.253926,0,0,18.253926,-587.184707,-25.195514)">
            <path d="M126.35,120.701C125.212,114.33 129.455,108.242 135.826,107.104C142.198,105.966 148.286,110.208 149.424,116.58C150.562,122.951 146.319,129.039 139.948,130.177C133.576,131.315 127.488,127.073 126.35,120.701Z" style="fill:none;stroke:rgb(15,23,42);stroke-width:7.21px;"/>
        </g>
    </g>
</svg>
